# xmcd
#
# Track frame offsets:
#	150
#	19405
#	33952
#	53567
#	67355
#	79022
#	94162
#	109365
#	123085
#	141417
#	157084
#	173134
#
# Disc length: 2476 seconds
#
# Revision: 0
# Processed by: cddbd v1.5.2PL0 Copyright (c) Steve Scherf et al.
# Submitted via: audiograbber 1.83.01
#
DISCID=a709aa0c
DTITLE=Acoustic Sound Orchestra - Romantic Piano
DYEAR=1900
DGENRE=
TTITLE0=Love Story
TTITLE1=Yesterday
TTITLE2=Sorrow
TTITLE3=J. S. Waltz
TTITLE4=Ballade Pour Adeline
TTITLE5=Blue Eyes
TTITLE6=Schiwago-Melodie
TTITLE7=Just A Girl
TTITLE8=Memory
TTITLE9=I Don't Know How To Love Him
TTITLE10=Close In My Arms
TTITLE11=Piano Bag
EXTD=
EXTT0=
EXTT1=
EXTT2=
EXTT3=
EXTT4=
EXTT5=
EXTT6=
EXTT7=
EXTT8=
EXTT9=
EXTT10=
EXTT11=
PLAYORDER=
